<svg xmlns="http://www.w3.org/2000/svg" data-name="Layer 1" viewBox="0 0 100 125" x="0px" y="0px"><title>Artboard 41</title><path d="M28.08,28.08a31,31,0,1,0,43.84,0A30.79,30.79,0,0,0,28.08,28.08Zm4.24,4.24A25,25,0,0,1,74.82,47H62.63a12.9,12.9,0,0,0-3.44-6.19h0A13,13,0,0,0,37.37,47H25.18A24.81,24.81,0,0,1,32.32,32.32ZM55,55a7,7,0,1,1,0-9.9A7,7,0,0,1,55,55ZM67.68,67.68A25,25,0,0,1,25.18,53H37.37a13,13,0,0,0,25.26,0H74.82A24.81,24.81,0,0,1,67.68,67.68Z"/><text x="0" y="115" fill="#000000" font-size="5px" font-weight="bold" font-family="'Helvetica Neue', Helvetica, Arial-Unicode, Arial, Sans-serif">Created by Gregor Cresnar</text><text x="0" y="120" fill="#000000" font-size="5px" font-weight="bold" font-family="'Helvetica Neue', Helvetica, Arial-Unicode, Arial, Sans-serif">from the Noun Project</text></svg>